<?xml version="1.0" standalone="no"?>
<!DOCTYPE svg PUBLIC "-//W3C//DTD SVG 20010904//EN"
 "http://www.w3.org/TR/2001/REC-SVG-20010904/DTD/svg10.dtd">
<svg version="1.0" xmlns="http://www.w3.org/2000/svg"
 width="108.000000pt" height="108.000000pt" viewBox="0 0 108.000000 108.000000"
 preserveAspectRatio="xMidYMid meet">
<metadata>
Created by potrace 1.11, written by Peter Selinger 2001-2013
</metadata>
<g transform="translate(0.000000,108.000000) scale(0.100000,-0.100000)"
fill="#000000" stroke="none">
<path d="M460 1071 c-24 -9 -74 -44 -88 -61 -36 -43 -44 -74 -44 -170 0 -54
-4 -103 -8 -109 -4 -8 -49 -12 -133 -12 -70 -1 -129 -5 -133 -10 -5 -9 27 -70
51 -95 5 -6 17 -21 25 -34 15 -22 94 -80 109 -80 5 0 14 -7 21 -15 7 -8 21
-15 31 -15 26 0 28 -17 27 -246 -1 -110 2 -206 5 -211 4 -6 13 -10 20 -9 20 3
67 42 60 50 -3 3 -1 6 5 6 7 0 15 18 18 40 5 33 11 41 33 46 117 25 250 155
275 271 9 41 11 358 2 372 -10 16 27 28 112 36 39 4 80 8 89 10 10 2 24 4 31
4 7 1 10 6 7 11 -4 6 -14 10 -23 9 -10 -2 -48 1 -87 6 -38 4 -80 9 -93 10 -27
2 -24 -1 -46 58 -23 61 -56 100 -103 122 -37 18 -135 27 -163 16z"/>
<path d="M1003 843 c9 -2 23 -2 30 0 6 3 -1 5 -18 5 -16 0 -22 -2 -12 -5z"/>
</g>
</svg>
